<?xml version="1.0" standalone="no"?>
<!DOCTYPE svg PUBLIC "-//W3C//DTD SVG 20010904//EN"
 "http://www.w3.org/TR/2001/REC-SVG-20010904/DTD/svg10.dtd">
<svg version="1.0" xmlns="http://www.w3.org/2000/svg"
 width="720.000000pt" height="720.000000pt" viewBox="0 0 720.000000 720.000000"
 preserveAspectRatio="xMidYMid meet">
<metadata>
Created by potrace 1.11, written by Peter Selinger 2001-2013
</metadata>
<g transform="translate(0.000000,720.000000) scale(0.100000,-0.100000)"
fill="#000000" stroke="none">
<path d="M0 3600 l0 -3600 3600 0 3600 0 0 3600 0 3600 -3600 0 -3600 0 0
-3600z m4450 1897 c13 -7 35 -28 47 -46 22 -33 23 -40 23 -282 l0 -249 606 0
c671 0 655 1 695 -64 18 -29 19 -54 17 -481 l-3 -450 -32 -67 c-56 -119 -149
-200 -274 -239 -59 -18 -127 -19 -1927 -19 -2027 0 -1914 -3 -2021 55 -68 37
-156 131 -189 202 l-27 58 -3 455 c-2 432 -1 457 17 486 40 65 24 64 700 64
l611 0 0 254 0 254 27 32 c14 18 36 36 47 40 12 5 390 9 841 9 637 1 826 -2
845 -12z m-2913 -2015 c129 -55 9 -52 2063 -52 1184 0 1911 4 1937 10 82 19
154 52 228 105 l75 54 -2 -907 -3 -907 -22 -31 c-50 -69 138 -64 -2213 -64
-2351 0 -2163 -5 -2213 64 l-22 31 -3 907 -2 907 62 -47 c35 -26 86 -57 115
-70z"/>
<path d="M2930 5095 l0 -175 675 0 675 0 0 175 0 175 -675 0 -675 0 0 -175z"/>
</g>
</svg>
